<?xml version="1.0" standalone="no"?>
<!DOCTYPE svg PUBLIC "-//W3C//DTD SVG 20010904//EN"
 "http://www.w3.org/TR/2001/REC-SVG-20010904/DTD/svg10.dtd">
<svg version="1.0" xmlns="http://www.w3.org/2000/svg"
 width="1200.000000pt" height="1200.000000pt" viewBox="0 0 1200.000000 1200.000000"
 preserveAspectRatio="xMidYMid meet">
<metadata>
Created by potrace 1.14, written by Peter Selinger 2001-2017
</metadata>
<g transform="translate(0.000000,1200.000000) scale(0.100000,-0.100000)"
fill="#000000" stroke="none">
<path d="M5778 9675 c-2 -1 -45 -5 -97 -9 -51 -3 -96 -8 -100 -10 -3 -2 -40
-7 -80 -10 -41 -4 -78 -9 -81 -11 -3 -2 -26 -6 -50 -10 -25 -3 -88 -15 -140
-27 -588 -125 -1149 -401 -1620 -797 -102 -87 -362 -349 -435 -441 -33 -41
-62 -77 -66 -80 -15 -14 -133 -177 -190 -265 -176 -267 -314 -552 -419 -865
-36 -107 -105 -372 -115 -440 -3 -25 -8 -52 -10 -60 -5 -19 -15 -75 -20 -115
-2 -16 -7 -50 -10 -75 -12 -85 -14 -105 -21 -220 -68 -1067 317 -2093 1065
-2840 86 -86 179 -175 206 -199 97 -83 321 -248 445 -326 290 -184 727 -374
1010 -440 8 -2 51 -12 95 -23 128 -32 296 -63 422 -76 159 -17 233 -21 433
-21 198 1 425 11 440 20 3 2 33 6 65 10 33 3 67 8 75 10 8 3 31 7 50 10 222
35 498 113 730 205 232 92 551 263 727 389 36 25 75 53 87 61 184 123 524 449
702 673 107 134 236 322 314 457 43 73 190 364 190 375 0 3 8 24 19 48 37 84
44 104 87 232 42 122 107 353 119 420 2 17 7 41 10 55 7 35 13 69 20 114 4 21
8 46 10 55 1 9 6 48 10 86 4 39 9 78 11 89 22 122 22 576 -1 756 -3 19 -7 58
-10 85 -3 28 -8 62 -10 78 -3 15 -7 39 -10 55 -12 76 -18 104 -36 187 -37 169
-106 406 -139 480 -5 11 -20 49 -33 85 -42 113 -147 333 -214 450 -181 313
-363 552 -612 800 -479 478 -1048 803 -1691 965 -144 36 -148 37 -285 61 -118
20 -165 27 -290 40 -53 6 -551 14 -557 9z m22 -474 c3 0 5 -559 5 -1241 l0
-1239 -143 -213 -142 -213 92 -42 c51 -24 116 -53 143 -66 l50 -24 0 -1688 1
-1687 -106 6 c-58 3 -121 8 -140 11 -19 3 -55 7 -80 10 -25 3 -56 7 -70 10
-14 2 -38 7 -55 10 -40 6 -87 16 -105 21 -14 3 -15 165 -15 1466 0 1534 1
1488 -41 1488 -8 0 -31 -11 -52 -23 -20 -13 -57 -35 -82 -49 -25 -14 -187
-107 -360 -208 -173 -101 -328 -190 -345 -199 -16 -9 -31 -19 -33 -23 -2 -5
-7 -8 -12 -8 -4 0 -144 -79 -311 -176 -425 -246 -459 -266 -464 -274 -7 -11
98 -201 168 -305 112 -166 237 -312 453 -528 10 -9 12 -697 2 -703 -6 -4 -100
55 -148 93 -185 145 -248 200 -371 323 -532 531 -855 1215 -926 1965 -15 161
-8 589 12 710 8 50 14 88 21 130 3 22 10 60 16 85 5 25 12 54 14 65 4 21 10
46 17 80 17 75 87 301 112 360 7 17 25 62 40 100 30 75 139 298 173 355 12 19
29 49 38 65 37 66 186 285 219 321 5 7 44 52 85 102 81 99 266 285 370 374
259 220 605 428 895 538 33 12 67 26 75 30 22 10 235 76 305 94 50 13 125 30
230 52 55 11 230 34 305 40 47 3 86 7 87 8 3 2 63 0 73 -3z m541 -5 c135 -10
257 -26 375 -50 457 -92 915 -297 1287 -575 336 -250 620 -564 841 -930 69
-112 179 -331 169 -332 -13 -1 -576 -1 -609 0 -26 1 -35 8 -57 49 -91 168
-297 420 -478 587 -281 259 -669 481 -1008 576 -41 12 -80 23 -86 25 -7 3 -10
-457 -10 -1556 0 -1102 3 -1560 10 -1560 6 0 15 4 21 9 5 5 29 20 54 33 25 14
101 58 170 98 68 40 138 81 155 90 16 10 156 91 310 180 154 90 332 193 395
230 63 36 270 156 460 266 343 200 520 300 737 420 27 15 62 35 80 46 l31 19
11 -34 c6 -18 18 -69 27 -112 9 -44 20 -98 24 -120 5 -22 12 -67 15 -100 4
-33 11 -82 15 -108 4 -26 7 -66 6 -89 l-1 -40 -295 -170 c-162 -94 -311 -179
-330 -190 -19 -11 -123 -71 -230 -133 -107 -62 -301 -173 -430 -247 -129 -75
-250 -144 -267 -154 -18 -11 -146 -84 -284 -164 -138 -80 -268 -154 -288 -166
-20 -12 -112 -65 -206 -118 -93 -54 -175 -103 -180 -111 -7 -8 -11 -324 -10
-959 l0 -945 -45 -10 c-49 -11 -89 -18 -135 -25 -16 -2 -49 -7 -72 -11 -54 -9
-106 -13 -224 -21 l-96 -6 0 3204 c0 1761 1 3206 3 3209 2 4 19 5 36 4 18 -2
67 -6 109 -9z"/>
<path d="M5062 8495 c-556 -187 -1043 -564 -1356 -1050 -39 -60 -77 -119 -84
-130 -6 -11 -42 -81 -78 -155 -84 -171 -89 -185 -132 -310 -30 -87 -86 -305
-96 -372 -3 -21 -9 -55 -12 -75 -3 -21 -7 -45 -9 -53 -29 -110 -26 -555 5
-755 25 -161 31 -185 43 -185 5 0 56 26 111 59 56 32 117 68 136 79 19 11 76
43 125 72 50 29 108 62 130 75 22 12 118 68 214 124 96 55 176 101 178 101 2
0 16 8 31 19 15 10 139 83 275 161 l249 143 61 91 c33 50 65 95 69 101 5 5 31
43 59 84 27 41 96 142 152 224 l101 150 1 829 c0 455 -2 828 -5 828 -3 0 -78
-25 -168 -55z"/>
</g>
</svg>
